<svg width="1440" height="483" viewBox="0 0 1440 483" fill="none" xmlns="http://www.w3.org/2000/svg">
<path d="M124.215 209.533C95.7454 185.84 39.3029 127.449 -33.9846 138.334L-5.56362 482.604L1484.41 344.457L1455.99 0.186788L1427.1 2.86555C1374.55 13.9771 1347.72 43.0219 1300.51 100.469C1233.17 144.663 1194.09 146.25 1122.52 116.972C1059.02 61.0928 1022.57 38.745 952.97 46.8259C874.485 56.9502 851.458 95.5458 808.84 146.056C766.222 196.565 664.804 196.047 623.109 163.276C581.413 130.506 529.271 83.2614 459.75 92.5562C390.23 101.851 345.935 137.074 300.143 193.221C254.351 249.368 152.684 233.225 124.215 209.533Z" fill="#2D325B"/>
</svg>
