<svg width="19" height="19" viewBox="0 0 19 19" fill="none" xmlns="http://www.w3.org/2000/svg">
<path d="M11.6737 9.49999L18.3029 2.88624C18.5932 2.59594 18.7563 2.20221 18.7563 1.79166C18.7563 1.38111 18.5932 0.987376 18.3029 0.697074C18.0126 0.406773 17.6189 0.243683 17.2083 0.243683C16.7978 0.243683 16.404 0.406773 16.1137 0.697074L9.5 7.32624L2.88625 0.697074C2.59595 0.406773 2.20221 0.243683 1.79166 0.243683C1.38112 0.243683 0.987382 0.406773 0.697081 0.697074C0.406779 0.987376 0.243689 1.38111 0.243689 1.79166C0.243689 2.20221 0.406779 2.59594 0.697081 2.88624L7.32625 9.49999L0.697081 16.1137C0.552583 16.2571 0.437892 16.4276 0.359624 16.6154C0.281355 16.8033 0.241058 17.0048 0.241058 17.2083C0.241058 17.4118 0.281355 17.6133 0.359624 17.8012C0.437892 17.9891 0.552583 18.1596 0.697081 18.3029C0.840399 18.4474 1.01091 18.5621 1.19877 18.6404C1.38664 18.7186 1.58815 18.7589 1.79166 18.7589C1.99518 18.7589 2.19669 18.7186 2.38455 18.6404C2.57242 18.5621 2.74293 18.4474 2.88625 18.3029L9.5 11.6737L16.1137 18.3029C16.2571 18.4474 16.4276 18.5621 16.6154 18.6404C16.8033 18.7186 17.0048 18.7589 17.2083 18.7589C17.4118 18.7589 17.6134 18.7186 17.8012 18.6404C17.9891 18.5621 18.1596 18.4474 18.3029 18.3029C18.4474 18.1596 18.5621 17.9891 18.6404 17.8012C18.7186 17.6133 18.7589 17.4118 18.7589 17.2083C18.7589 17.0048 18.7186 16.8033 18.6404 16.6154C18.5621 16.4276 18.4474 16.2571 18.3029 16.1137L11.6737 9.49999Z" fill="#2D325B"/>
</svg>
