<svg width="50" height="52" viewBox="0 0 50 52" fill="none" xmlns="http://www.w3.org/2000/svg">
<path fill-rule="evenodd" clip-rule="evenodd" d="M25 0.0595703C11.1875 0.0595703 0 11.9158 0 26.5539C0 38.2776 7.15625 48.1799 17.0938 51.6904C18.3438 51.9222 18.8125 51.1273 18.8125 50.4319C18.8125 49.8026 18.7812 47.7162 18.7812 45.4973C12.5 46.7227 10.875 43.8745 10.375 42.3842C10.0938 41.6225 8.875 39.2711 7.8125 38.6419C6.9375 38.1451 5.6875 36.9198 7.78125 36.8867C9.75 36.8535 11.1562 38.8075 11.625 39.6023C13.875 43.6096 17.4687 42.4836 18.9062 41.7881C19.125 40.066 19.7812 38.9068 20.5 38.2445C14.9375 37.5821 9.125 35.297 9.125 25.1629C9.125 22.2817 10.0938 19.8972 11.6875 18.0426C11.4375 17.3802 10.5625 14.6646 11.9375 11.0216C11.9375 11.0216 14.0312 10.3261 18.8125 13.7373C20.8125 13.1411 22.9375 12.8431 25.0625 12.8431C27.1875 12.8431 29.3125 13.1411 31.3125 13.7373C36.0938 10.293 38.1875 11.0216 38.1875 11.0216C39.5625 14.6646 38.6875 17.3802 38.4375 18.0426C40.0312 19.8972 41 22.2486 41 25.1629C41 35.3301 35.1562 37.5821 29.5937 38.2445C30.5 39.0724 31.2812 40.6621 31.2812 43.1459C31.2812 46.6896 31.25 49.5377 31.25 50.4319C31.25 51.1273 31.7187 51.9553 32.9688 51.6904C37.9316 49.9146 42.2441 46.5343 45.2993 42.0252C48.3545 37.516 49.9985 32.1051 50 26.5539C50 11.9158 38.8125 0.0595703 25 0.0595703Z" fill="#2D325B"/>
</svg>
