<svg width="50" height="53" viewBox="0 0 50 53" fill="none" xmlns="http://www.w3.org/2000/svg">
<path d="M35.9 31.793C36.1 30.0444 36.25 28.2957 36.25 26.4941C36.25 24.6925 36.1 22.9439 35.9 21.1953H44.35C44.75 22.8909 45 24.666 45 26.4941C45 28.3222 44.75 30.0973 44.35 31.793H35.9ZM31.475 46.5237C32.975 43.5829 34.125 40.4036 34.925 37.0918H42.3C39.8779 41.5117 36.0353 44.8599 31.475 46.5237ZM30.85 31.793H19.15C18.9 30.0444 18.75 28.2957 18.75 26.4941C18.75 24.6925 18.9 22.9174 19.15 21.1953H30.85C31.075 22.9174 31.25 24.6925 31.25 26.4941C31.25 28.2957 31.075 30.0444 30.85 31.793ZM25 47.5835C22.925 44.4042 21.25 40.8805 20.225 37.0918H29.775C28.75 40.8805 27.075 44.4042 25 47.5835ZM15 15.8965H7.7C10.0971 11.4646 13.937 8.11115 18.5 6.46457C17 9.40542 15.875 12.5847 15 15.8965ZM7.7 37.0918H15C15.875 40.4036 17 43.5829 18.5 46.5237C13.9466 44.859 10.1121 41.5103 7.7 37.0918ZM5.65 31.793C5.25 30.0973 5 28.3222 5 26.4941C5 24.666 5.25 22.8909 5.65 21.1953H14.1C13.9 22.9439 13.75 24.6925 13.75 26.4941C13.75 28.2957 13.9 30.0444 14.1 31.793H5.65ZM25 5.37831C27.075 8.55761 28.75 12.1078 29.775 15.8965H20.225C21.25 12.1078 22.925 8.55761 25 5.37831ZM42.3 15.8965H34.925C34.1426 12.6151 32.9839 9.44753 31.475 6.46457C36.075 8.1337 39.9 11.4985 42.3 15.8965ZM25 0C11.175 0 0 11.9224 0 26.4941C0 33.5208 2.63392 40.2597 7.32233 45.2283C9.6438 47.6885 12.3998 49.6401 15.4329 50.9715C18.4661 52.303 21.717 52.9883 25 52.9883C31.6304 52.9883 37.9893 50.1969 42.6777 45.2283C47.3661 40.2597 50 33.5208 50 26.4941C50 23.0149 49.3534 19.5697 48.097 16.3553C46.8406 13.1409 44.9991 10.2202 42.6777 7.75995C40.3562 5.29975 37.6002 3.3482 34.5671 2.01675C31.5339 0.685291 28.283 0 25 0Z" fill="#2D325B"/>
</svg>
